Coordinates
version=1
nRows=37
nColumns=38
inDegrees=no

Units are S.I. units (second, meters, Newtons, ...)
If the header above contains a line with 'inDegrees', this indicates whether rotational values are in degrees (yes) or radians (no).

endheader
time	pelvis_tilt	pelvis_list	pelvis_rotation	pelvis_tx	pelvis_ty	pelvis_tz	hip_flexion_r	hip_adduction_r	hip_rotation_r	knee_angle_r	ankle_angle_r	subtalar_angle_r	mtp_angle_r	hip_flexion_l	hip_adduction_l	hip_rotation_l	knee_angle_l	ankle_angle_l	subtalar_angle_l	mtp_angle_l	lumbar_extension	lumbar_bending	lumbar_rotation	arm_flex_r	arm_add_r	arm_rot_r	elbow_flex_r	pro_sup_r	wrist_flex_r	wrist_dev_r	arm_flex_l	arm_add_l	arm_rot_l	elbow_flex_l	pro_sup_l	wrist_flex_l	wrist_dev_l
21.49	3.02054	1.27298	-1.32505	0.697794	-0.145131	0.953712	-0.38116	0.0560749	-0.0712193	0.222199	-0.205637	0	0	-0.340755	-0.125003	-0.0852235	0.32583	-0.131641	0	0	-0.294343	0.0864602	-0.0959146	0.496768	-0.502295	1.0328	1.77695	1.4641	0	0	0.402255	-0.421294	0.913582	1.71958	1.40894	0	0
21.5	3.02076	1.27337	-1.32528	0.697723	-0.145237	0.953686	-0.380416	0.0555843	-0.0713197	0.222769	-0.205559	0	0	-0.340271	-0.124701	-0.0848763	0.325623	-0.13172	0	0	-0.293284	0.0862371	-0.0960034	0.490454	-0.503087	1.02862	1.77154	1.46183	0	0	0.398733	-0.420648	0.915125	1.71492	1.38851	0	0
21.51	3.02109	1.27365	-1.32572	0.697657	-0.145362	0.953682	-0.379747	0.0550851	-0.0711918	0.223372	-0.205401	0	0	-0.339932	-0.124336	-0.0847291	0.325382	-0.131743	0	0	-0.292288	0.0859752	-0.0959328	0.484138	-0.504031	1.02448	1.76606	1.46103	0	0	0.395216	-0.420195	0.916549	1.71065	1.36999	0	0
21.52	3.02136	1.27369	-1.32606	0.697596	-0.145508	0.953699	-0.37935	0.0547744	-0.0711567	0.223845	-0.205264	0	0	-0.339643	-0.124099	-0.0847888	0.32572	-0.131835	0	0	-0.291461	0.0858198	-0.0958115	0.47794	-0.504414	1.02084	1.76002	1.46134	0	0	0.391578	-0.419747	0.917793	1.70673	1.35344	0	0
21.53	3.02228	1.26916	-1.32721	0.697395	-0.145793	0.953783	-0.383986	0.0550819	-0.0722013	0.22377	-0.205192	0	0	-0.344162	-0.124898	-0.0874677	0.326608	-0.13121	0	0	-0.295226	0.0887766	-0.0945457	0.48005	-0.473453	1.03054	1.75952	1.46501	0	0	0.389511	-0.419053	0.919858	1.70359	1.33391	0	0
21.54	3.02285	1.26708	-1.32779	0.697247	-0.146014	0.953885	-0.386186	0.0551264	-0.0725563	0.223325	-0.205725	0	0	-0.346345	-0.125086	-0.0881401	0.326273	-0.131366	0	0	-0.297268	0.0891935	-0.0950171	0.476193	-0.473613	1.03132	1.75274	1.4676	0	0	0.384404	-0.418429	0.919538	1.70193	1.31678	0	0
21.55	3.02303	1.27073	-1.32772	0.697289	-0.146094	0.953864	-0.382006	0.0543733	-0.0718247	0.22354	-0.206271	0	0	-0.342441	-0.123939	-0.0853684	0.325249	-0.132398	0	0	-0.29472	0.0866383	-0.0935678	0.461237	-0.499109	1.01913	1.73878	1.46661	0	0	0.380193	-0.41709	0.921603	1.69968	1.3028	0	0
21.56	3.02234	1.2708	-1.32731	0.697188	-0.146296	0.953803	-0.380998	0.0540658	-0.071853	0.224958	-0.206051	0	0	-0.34179	-0.123937	-0.0856124	0.326143	-0.132118	0	0	-0.295276	0.086601	-0.0914365	0.452592	-0.500739	1.0112	1.73765	1.4669	0	0	0.376935	-0.415496	0.924446	1.69804	1.28234	0	0
21.57	3.02198	1.26992	-1.32729	0.697085	-0.146539	0.953808	-0.381181	0.053971	-0.0719149	0.225936	-0.205739	0	0	-0.342238	-0.124025	-0.0861088	0.326803	-0.131666	0	0	-0.297009	0.0865909	-0.0898725	0.445024	-0.502935	1.00279	1.73775	1.46929	0	0	0.372968	-0.413924	0.926195	1.69677	1.25974	0	0
21.58	3.0219	1.26871	-1.32749	0.696971	-0.146797	0.953847	-0.381922	0.0538933	-0.0719494	0.226483	-0.205545	0	0	-0.343132	-0.124118	-0.0866574	0.327187	-0.131464	0	0	-0.299177	0.0865841	-0.0881621	0.437766	-0.504303	0.995112	1.73631	1.4737	0	0	0.368993	-0.412069	0.927598	1.69506	1.23796	0	0
21.59	3.02208	1.26731	-1.32792	0.696851	-0.147057	0.953912	-0.38303	0.0538317	-0.0721796	0.226702	-0.205672	0	0	-0.344389	-0.124178	-0.087104	0.327252	-0.131474	0	0	-0.301525	0.0865559	-0.0863235	0.430636	-0.504826	0.988874	1.73363	1.47839	0	0	0.365179	-0.41005	0.92874	1.6929	1.21816	0	0
21.6	3.02274	1.26616	-1.32879	0.696737	-0.147321	0.953948	-0.383929	0.0536044	-0.072516	0.226714	-0.205998	0	0	-0.34543	-0.124029	-0.0873963	0.32732	-0.131492	0	0	-0.303537	0.0864407	-0.0844679	0.42408	-0.505109	0.98461	1.73072	1.48274	0	0	0.361685	-0.407935	0.929735	1.68986	1.2017	0	0
21.61	3.02306	1.26551	-1.32957	0.696651	-0.147557	0.953961	-0.38427	0.0532574	-0.0724776	0.226758	-0.206209	0	0	-0.346194	-0.123748	-0.08774	0.32683	-0.131515	0	0	-0.304787	0.0864192	-0.0827019	0.418261	-0.505248	0.982252	1.72765	1.48556	0	0	0.358127	-0.405502	0.930377	1.68517	1.18994	0	0
21.62	3.02292	1.26514	-1.33006	0.696578	-0.147777	0.953976	-0.384314	0.0529345	-0.0721192	0.226796	-0.206321	0	0	-0.346888	-0.123454	-0.0881962	0.325765	-0.1316	0	0	-0.305467	0.0864514	-0.0806667	0.412413	-0.505483	0.980567	1.72469	1.48761	0	0	0.354856	-0.402802	0.931388	1.67938	1.17929	0	0
21.63	3.02307	1.26514	-1.33067	0.696513	-0.147971	0.953968	-0.384179	0.0523907	-0.0719641	0.226473	-0.206503	0	0	-0.347079	-0.123115	-0.0884826	0.325094	-0.131792	0	0	-0.305694	0.0861842	-0.078831	0.406697	-0.505699	0.979563	1.72187	1.48913	0	0	0.351805	-0.40019	0.93286	1.67339	1.17027	0	0
21.64	3.02324	1.2654	-1.33118	0.69646	-0.148139	0.953945	-0.38391	0.0519975	-0.0720788	0.225943	-0.206743	0	0	-0.346838	-0.122843	-0.0886695	0.325014	-0.132061	0	0	-0.305744	0.0857255	-0.0775306	0.401208	-0.505428	0.978869	1.71931	1.4906	0	0	0.348699	-0.398069	0.934344	1.66793	1.16316	0	0
21.65	3.02298	1.26523	-1.33152	0.696368	-0.148395	0.953957	-0.383556	0.0519545	-0.0721444	0.2262	-0.20687	0	0	-0.347054	-0.122619	-0.0890882	0.324737	-0.132274	0	0	-0.306706	0.0855071	-0.0764136	0.396529	-0.505114	0.978391	1.71845	1.49221	0	0	0.345608	-0.396082	0.935187	1.66318	1.15806	0	0
21.66	3.02274	1.26464	-1.33176	0.696261	-0.148679	0.954023	-0.383867	0.0517807	-0.0720802	0.226033	-0.207233	0	0	-0.347776	-0.12249	-0.0895375	0.324083	-0.13258	0	0	-0.308434	0.0853709	-0.0754659	0.392294	-0.504789	0.977718	1.71836	1.49386	0	0	0.342377	-0.394199	0.935427	1.65922	1.15421	0	0
21.67	3.02301	1.26416	-1.33237	0.696174	-0.148968	0.954079	-0.384194	0.0515142	-0.0719583	0.225592	-0.207623	0	0	-0.348306	-0.12227	-0.0899852	0.323483	-0.132937	0	0	-0.310149	0.0850111	-0.0747575	0.388275	-0.504518	0.97628	1.71905	1.49579	0	0	0.338763	-0.392481	0.935052	1.65577	1.15051	0	0
21.68	3.02344	1.2638	-1.33305	0.696108	-0.149267	0.954108	-0.384313	0.051696	-0.0715384	0.225352	-0.207654	0	0	-0.348633	-0.122008	-0.0903181	0.32296	-0.133185	0	0	-0.311797	0.0844835	-0.0741504	0.384575	-0.504219	0.974507	1.72002	1.49847	0	0	0.334996	-0.390682	0.934149	1.65224	1.14682	0	0
21.69	3.02416	1.26327	-1.33385	0.696005	-0.149571	0.954138	-0.384665	0.0519324	-0.071192	0.225243	-0.207467	0	0	-0.349139	-0.121731	-0.0906012	0.322465	-0.133395	0	0	-0.313606	0.0839647	-0.0736774	0.381188	-0.503734	0.97297	1.72064	1.5016	0	0	0.331506	-0.388741	0.933197	1.64855	1.14248	0	0
21.7	3.02515	1.26295	-1.33494	0.695887	-0.149894	0.954116	-0.384613	0.0512366	-0.0716287	0.225222	-0.207645	0	0	-0.349248	-0.12131	-0.0905788	0.322706	-0.13366	0	0	-0.31521	0.0834128	-0.0733125	0.378316	-0.502859	0.97224	1.72015	1.50498	0	0	0.328503	-0.387001	0.932655	1.64501	1.13715	0	0
21.71	3.02498	1.26253	-1.335	0.695801	-0.150262	0.954144	-0.384347	0.0508506	-0.0723108	0.225477	-0.208106	0	0	-0.34933	-0.121255	-0.0905136	0.323047	-0.134038	0	0	-0.316994	0.0832945	-0.0729267	0.376109	-0.501488	0.972494	1.71809	1.50788	0	0	0.326356	-0.385838	0.932962	1.64155	1.13059	0	0
21.72	3.02511	1.26217	-1.33532	0.695727	-0.150636	0.954182	-0.384102	0.0505154	-0.0726632	0.225784	-0.208472	0	0	-0.349453	-0.121077	-0.0906025	0.322726	-0.134215	0	0	-0.318584	0.0830978	-0.0725797	0.374281	-0.499927	0.973468	1.71465	1.51018	0	0	0.32484	-0.38499	0.933977	1.63766	1.12211	0	0
21.73	3.02543	1.26187	-1.33571	0.69565	-0.150997	0.954231	-0.383827	0.0503146	-0.0727952	0.226174	-0.208659	0	0	-0.349537	-0.120849	-0.090667	0.322012	-0.134289	0	0	-0.319913	0.082849	-0.0723586	0.372466	-0.498443	0.974781	1.71054	1.51202	0	0	0.323405	-0.384151	0.935113	1.63288	1.11067	0	0
21.74	3.02553	1.26159	-1.33587	0.695565	-0.151357	0.954265	-0.383453	0.0501752	-0.0728105	0.226716	-0.208766	0	0	-0.349344	-0.120749	-0.0906949	0.322152	-0.134505	0	0	-0.321396	0.0825455	-0.0723608	0.370687	-0.497211	0.975944	1.70685	1.51318	0	0	0.321763	-0.383414	0.935712	1.62872	1.09735	0	0
21.75	3.02514	1.2614	-1.33568	0.695474	-0.151725	0.954271	-0.382848	0.0499693	-0.0725929	0.227468	-0.208847	0	0	-0.348913	-0.120789	-0.0909512	0.322707	-0.134616	0	0	-0.323076	0.0822724	-0.0726151	0.369116	-0.4959	0.976129	1.70412	1.51362	0	0	0.319251	-0.382994	0.934879	1.62564	1.08171	0	0
21.76	3.02497	1.26113	-1.33566	0.695367	-0.152116	0.954287	-0.382246	0.0496531	-0.0725381	0.228438	-0.208841	0	0	-0.348601	-0.120777	-0.0912987	0.323104	-0.134683	0	0	-0.325043	0.0820535	-0.0729123	0.368336	-0.495114	0.975324	1.70068	1.51367	0	0	0.31606	-0.38274	0.932627	1.62317	1.0635	0	0
21.77	3.02535	1.26081	-1.33606	0.695276	-0.152535	0.954334	-0.381716	0.0493028	-0.0725438	0.229316	-0.208759	0	0	-0.34832	-0.120615	-0.0914339	0.323317	-0.134772	0	0	-0.327073	0.0815889	-0.0735022	0.366768	-0.493475	0.974019	1.69793	1.51374	0	0	0.312449	-0.382551	0.929235	1.62042	1.04377	0	0
21.78	3.02583	1.26039	-1.3364	0.695196	-0.152961	0.954405	-0.381361	0.0491915	-0.0727984	0.230068	-0.208632	0	0	-0.348111	-0.120518	-0.0915534	0.323417	-0.134935	0	0	-0.329175	0.0811466	-0.0740607	0.364979	-0.491796	0.972462	1.69442	1.5138	0	0	0.308692	-0.382374	0.925176	1.61702	1.02341	0	0
21.79	3.02619	1.26018	-1.33653	0.695113	-0.153374	0.954445	-0.380837	0.0490605	-0.0731958	0.230715	-0.208627	0	0	-0.347608	-0.120482	-0.0914591	0.323892	-0.135266	0	0	-0.330758	0.0806234	-0.0747239	0.362277	-0.489468	0.97149	1.69	1.51641	0	0	0.304469	-0.382211	0.920354	1.6128	1.00289	0	0
21.8	3.02664	1.26004	-1.33678	0.695046	-0.15378	0.954457	-0.380354	0.048745	-0.0734992	0.23119	-0.208758	0	0	-0.347018	-0.120416	-0.0913243	0.32451	-0.135599	0	0	-0.332233	0.0800006	-0.0750079	0.359965	-0.487823	0.970546	1.68311	1.51957	0	0	0.300158	-0.381863	0.915157	1.60754	0.982913	0	0
21.81	3.02731	1.25987	-1.33734	0.694988	-0.15418	0.954474	-0.380096	0.0482977	-0.0735505	0.231326	-0.208893	0	0	-0.346569	-0.12024	-0.0913429	0.325018	-0.135914	0	0	-0.333816	0.0791682	-0.0751389	0.357098	-0.48594	0.969149	1.67493	1.52082	0	0	0.295503	-0.381285	0.909163	1.60124	0.963652	0	0
21.82	3.0282	1.25953	-1.33819	0.694951	-0.154578	0.954514	-0.380155	0.047758	-0.0735139	0.231109	-0.209111	0	0	-0.346508	-0.119994	-0.0914271	0.324899	-0.13605	0	0	-0.335705	0.0782042	-0.0750393	0.353823	-0.484074	0.967323	1.66536	1.52076	0	0	0.290677	-0.380698	0.902449	1.59408	0.947027	0	0
21.83	3.02891	1.25893	-1.33889	0.694927	-0.154994	0.954587	-0.380438	0.0476965	-0.073352	0.230735	-0.209423	0	0	-0.346764	-0.119844	-0.0916455	0.324646	-0.136323	0	0	-0.337752	0.0774863	-0.0749092	0.350563	-0.481973	0.965224	1.65397	1.52022	0	0	0.285544	-0.380481	0.895195	1.58608	0.93011	0	0
21.84	3.02923	1.25826	-1.3392	0.694918	-0.155409	0.954653	-0.380735	0.0479546	-0.0732582	0.230402	-0.209758	0	0	-0.347074	-0.119919	-0.0919355	0.32447	-0.13666	0	0	-0.339752	0.0768885	-0.074734	0.347225	-0.479757	0.962873	1.64087	1.51934	0	0	0.280203	-0.380418	0.887699	1.57694	0.913445	0	0
21.85	3.02949	1.25764	-1.33924	0.694923	-0.155793	0.954711	-0.381026	0.0484657	-0.0737533	0.230121	-0.210026	0	0	-0.3474	-0.120163	-0.0919701	0.324156	-0.137065	0	0	-0.34147	0.0763089	-0.0745767	0.343477	-0.477273	0.960197	1.62564	1.51782	0	0	0.274895	-0.379758	0.880058	1.56571	0.89777	0	0
